<?xml version="1.0" encoding="UTF-8"?>
<svg xmlns="http://www.w3.org/2000/svg" xmlns:xlink="http://www.w3.org/1999/xlink" width="102px" height="28px" viewBox="0 0 102 28" version="1.1">
<g id="surface1">
<path style=" stroke:none;fill-rule:nonzero;fill:rgb(19.607843%,42.352941%,89.803922%);fill-opacity:1;" d="M 17.183594 6.835938 C 16.941406 6.84375 16.707031 6.878906 16.492188 6.9375 L 7.128906 9.390625 C 6.636719 9.515625 6.28125 9.761719 6.160156 10.050781 L 3.871094 15.558594 C 3.757812 15.816406 3.847656 16.085938 4.113281 16.308594 C 4.140625 16.335938 4.175781 16.359375 4.210938 16.386719 L 10.6875 20.804688 C 11.027344 21.035156 11.539062 21.167969 12.082031 21.167969 L 22.46875 21.167969 C 23.007812 21.167969 23.523438 21.03125 23.863281 20.800781 L 30.339844 16.378906 C 30.671875 16.148438 30.800781 15.84375 30.679688 15.554688 L 28.375 10.042969 C 28.246094 9.753906 27.890625 9.511719 27.40625 9.382812 L 18.050781 6.9375 C 17.78125 6.863281 17.480469 6.828125 17.183594 6.835938 Z M 17.183594 6.835938 "/>
<path style="fill-rule:nonzero;fill:rgb(100%,100%,100%);fill-opacity:1;stroke-width:0.25;stroke-linecap:butt;stroke-linejoin:miter;stroke:rgb(100%,100%,100%);stroke-opacity:1;stroke-miterlimit:4;" d="M 83.271125 -63.592319 C 81.526088 -63.476033 80.185389 -61.964327 80.291794 -60.22005 L 80.291794 -59.367292 C 80.376917 -58.359488 80.483322 -57.390445 80.67485 -56.460164 C 80.994064 -54.599602 81.079188 -52.777802 80.994064 -50.91724 C 80.845098 -50.297052 80.483322 -49.754388 79.99386 -49.32801 L 79.951299 -48.048873 C 78.078576 -47.893826 76.227134 -47.583733 74.396974 -47.196116 C 66.778398 -45.451839 59.819531 -41.498144 54.478015 -35.800173 L 53.392687 -36.575407 C 52.77554 -36.420361 52.115831 -36.459122 51.583808 -36.769216 C 50.094142 -37.854544 48.710881 -39.094918 47.455306 -40.451578 C 46.838158 -41.226812 46.178449 -41.924523 45.454897 -42.583472 L 44.795188 -43.126136 C 44.178041 -43.630038 43.433208 -43.90137 42.667095 -43.940132 C 41.730733 -43.978894 40.836934 -43.591277 40.219787 -42.854804 C 39.198302 -41.420621 39.517516 -39.405012 40.9859 -38.358446 L 41.603048 -37.854544 C 42.433004 -37.31188 43.284242 -36.807978 44.135479 -36.381599 C 45.752831 -35.490079 47.306339 -34.404752 48.710881 -33.203139 C 49.093938 -32.699236 49.285466 -32.079049 49.328028 -31.458862 L 50.328232 -30.606104 C 44.944155 -22.504907 42.688375 -12.698195 44.092917 -3.085291 L 42.816061 -2.697674 C 42.496847 -2.15501 42.028666 -1.728631 41.496643 -1.379775 C 39.709044 -0.914635 37.900164 -0.604541 36.027442 -0.488256 C 35.0698 -0.449494 34.090876 -0.371971 33.133234 -0.255686 L 32.303278 -0.0618773 L 32.196873 -0.0618773 C 31.068983 0.0931695 30.09006 0.907165 29.707003 1.992493 C 29.323946 3.077821 29.64316 4.318196 30.451836 5.132192 C 31.260512 5.946188 32.473525 6.256281 33.580134 5.907426 L 33.622696 5.907426 L 34.473933 5.791141 C 35.410295 5.519809 36.304094 5.170953 37.197893 4.783336 C 38.94293 4.085626 40.687967 3.581723 42.496847 3.232868 C 43.156556 3.27163 43.752422 3.465438 44.284446 3.853055 L 45.603864 3.620485 C 48.583195 12.845772 54.839791 20.675637 63.2032 25.637136 L 62.628615 26.799987 C 62.883986 27.342651 62.96911 27.924077 62.883986 28.505502 C 62.160434 30.249779 61.224073 31.916533 60.138745 33.505763 C 59.56416 34.280997 59.010855 35.094993 58.521394 35.94775 L 58.095775 36.761746 C 57.499909 37.769551 57.54247 39.009925 58.159618 39.978968 C 58.819327 40.948011 59.947216 41.490675 61.075106 41.37439 C 62.224277 41.219343 63.2032 40.48287 63.628819 39.397543 L 63.969314 38.583547 C 64.33109 37.692027 64.629023 36.761746 64.863113 35.792704 C 65.69307 33.815856 66.118689 31.645201 67.225297 30.327303 C 67.587073 29.978447 68.055254 29.745877 68.544716 29.668354 L 69.246987 28.427979 C 78.270104 31.916533 88.314707 31.955294 97.380387 28.505502 L 97.976253 29.668354 C 98.635962 29.784639 99.167986 30.094732 99.551043 30.598635 C 100.423561 32.265388 101.104551 33.970903 101.657856 35.753942 C 101.891946 36.684223 102.189879 37.614504 102.551655 38.544785 L 102.89215 39.320019 C 103.317769 40.405347 104.296692 41.180581 105.445863 41.296866 C 106.573752 41.413151 107.701642 40.909249 108.361351 39.940206 C 108.978498 38.932402 109.02106 37.692027 108.446475 36.722985 L 108.020856 35.908989 C 107.510114 35.056231 106.956809 34.242235 106.382224 33.467001 C 105.339458 31.955294 104.403097 30.327303 103.679545 28.621787 C 103.509297 28.0016 103.636983 27.342651 103.977478 26.799987 C 103.785949 26.373608 103.636983 25.985991 103.466735 25.559612 C 111.808863 20.598114 118.044178 12.729487 121.002229 3.465438 L 122.321647 3.698008 C 122.768546 3.27163 123.364413 3.039059 124.024122 3.077821 C 125.833002 3.426676 127.6206 3.930579 129.323075 4.628289 C 130.216875 5.054668 131.153236 5.403524 132.089597 5.713617 C 132.281126 5.752379 132.621621 5.791141 132.855711 5.868664 L 132.940835 5.868664 C 134.026163 6.21752 135.260457 5.946188 136.069133 5.132192 C 136.877809 4.279434 137.154461 3.077821 136.771404 1.953732 C 136.430909 0.868404 135.451986 0.0931695 134.281534 -0.0618773 L 133.366454 -0.255686 C 132.387531 -0.410733 131.429888 -0.488256 130.450965 -0.488256 C 128.599524 -0.604541 126.769363 -0.914635 124.981764 -1.418537 C 124.407179 -1.689869 123.98156 -2.15501 123.662346 -2.736435 L 122.428051 -3.085291 C 123.74747 -12.698195 121.49169 -22.466145 116.065051 -30.528581 L 117.150379 -31.536385 C 117.129098 -32.156572 117.320626 -32.77676 117.746245 -33.2419 C 119.129506 -34.482275 120.640453 -35.528841 122.279085 -36.459122 C 123.130322 -36.885501 123.98156 -37.389403 124.790236 -37.932067 L 125.449945 -38.474731 C 126.47143 -39.094918 127.046015 -40.25777 126.897049 -41.420621 C 126.769363 -42.583472 125.960687 -43.591277 124.875359 -43.978894 C 123.74747 -44.366511 122.513175 -44.095179 121.661938 -43.242421 L 121.002229 -42.699757 C 120.299958 -42.040808 119.597687 -41.304336 118.980539 -40.567863 C 117.788807 -39.172442 116.469389 -37.932067 114.979723 -36.807978 C 114.405138 -36.575407 113.745429 -36.497884 113.128281 -36.614169 L 111.95783 -35.761411 C 105.296896 -42.777281 96.273778 -47.118592 86.612232 -48.010112 C 86.612232 -48.397729 86.56967 -49.134201 86.56967 -49.366771 C 86.037647 -49.715627 85.675871 -50.258291 85.569466 -50.878478 C 85.484342 -52.73904 85.612028 -54.599602 85.909961 -56.421402 C 86.10149 -57.351683 86.271737 -58.320726 86.33558 -59.328531 L 86.33558 -60.181288 C 86.420704 -61.925565 85.101286 -63.437272 83.313687 -63.553557 Z M 79.440556 -39.947676 L 78.546757 -23.93909 L 78.482914 -23.93909 C 78.440352 -22.931286 77.844486 -22.078528 76.971967 -21.613388 C 76.078168 -21.187009 75.014121 -21.303294 74.205445 -21.88472 L 61.117668 -31.18753 C 65.288732 -35.296271 70.523843 -38.125876 76.227134 -39.405012 C 77.312462 -39.637582 78.39779 -39.831391 79.483118 -39.947676 Z M 87.122975 -39.947676 C 93.975437 -39.094918 100.423561 -35.993982 105.38202 -31.148768 L 92.358086 -21.88472 C 91.570691 -21.264532 90.485363 -21.109485 89.570283 -21.574626 C 88.633921 -22.001005 88.016774 -22.931286 88.016774 -23.93909 Z M 56.308176 -25.140703 L 68.310625 -14.442471 L 68.310625 -14.364948 C 69.055458 -13.744761 69.395953 -12.736956 69.161863 -11.767913 C 68.949053 -10.798871 68.204221 -10.023637 67.267859 -9.752305 L 67.267859 -9.713543 L 51.839179 -5.294708 C 51.115627 -12.233054 52.669136 -19.210162 56.308176 -25.140703 Z M 110.14895 -25.140703 C 113.78799 -19.210162 115.405342 -12.271816 114.745633 -5.33347 L 99.338233 -9.752305 L 99.338233 -9.829828 C 98.35931 -10.10116 97.614477 -10.876394 97.380387 -11.806675 C 97.188859 -12.775718 97.508073 -13.783522 98.252905 -14.442471 L 110.14895 -25.101941 Z M 80.845098 -13.589714 L 85.718433 -13.589714 L 88.697764 -9.791066 L 87.612436 -5.023376 L 83.207282 -2.930244 L 78.780847 -5.023376 L 77.780643 -9.791066 Z M 96.529149 -0.604541 C 96.76324 -0.643303 96.954768 -0.643303 97.167578 -0.604541 L 113.043158 2.070017 C 110.723535 8.698269 106.233257 14.318717 100.338437 18.078603 L 94.209527 3.194106 C 93.869032 2.38011 93.932875 1.449829 94.401056 0.713357 C 94.869236 -0.0231156 95.63535 -0.488256 96.529149 -0.56578 Z M 69.864134 -0.527018 C 70.757933 -0.527018 71.609171 -0.0618773 72.077351 0.713357 C 72.588094 1.449829 72.651937 2.38011 72.311442 3.232868 L 72.311442 3.27163 L 66.182531 18.001079 C 60.372835 14.241193 55.9464 8.698269 53.584216 2.186302 L 69.33211 -0.488256 C 69.481077 -0.527018 69.672605 -0.527018 69.864134 -0.488256 Z M 83.16472 5.946188 C 84.207486 5.907426 85.143847 6.45009 85.65459 7.341609 L 85.675871 7.341609 L 93.464694 21.334586 C 92.421928 21.683441 91.421724 21.954773 90.378958 22.226105 C 84.633105 23.505242 78.717004 23.195148 73.162679 21.334586 L 80.88766 7.302847 C 81.377121 6.488852 82.228359 5.984949 83.16472 5.984949 Z M 83.16472 5.946188 " transform="matrix(0.183556,0,0,0.100776,1.988499,15.119517)"/>
<path style=" stroke:none;fill-rule:nonzero;fill:rgb(0%,0%,0%);fill-opacity:1;" d="M 36.59375 14.289062 L 37.132812 13.960938 C 37.316406 13.851562 37.503906 13.738281 37.671875 13.628906 L 38.171875 13.3125 C 38.328125 13.214844 38.457031 13.128906 38.570312 13.054688 L 40.675781 13.054688 C 40.257812 13.320312 39.84375 13.570312 39.445312 13.8125 C 39.046875 14.054688 38.605469 14.300781 38.128906 14.558594 C 38.390625 14.691406 38.640625 14.832031 38.867188 14.980469 C 39.117188 15.144531 39.367188 15.3125 39.601562 15.484375 C 39.835938 15.65625 40.058594 15.832031 40.257812 16.007812 C 40.457031 16.183594 40.621094 16.34375 40.753906 16.484375 L 38.71875 16.484375 C 38.589844 16.371094 38.449219 16.246094 38.285156 16.109375 C 38.113281 15.972656 37.945312 15.835938 37.765625 15.703125 C 37.589844 15.570312 37.394531 15.4375 37.191406 15.308594 C 37.011719 15.191406 36.804688 15.085938 36.59375 14.988281 L 36.59375 16.492188 L 34.820312 16.492188 L 34.820312 11.578125 L 36.59375 11.421875 Z M 46.921875 16.371094 C 46.546875 16.429688 46.15625 16.472656 45.761719 16.503906 C 45.265625 16.546875 44.765625 16.570312 44.261719 16.566406 C 43.8125 16.574219 43.359375 16.535156 42.9375 16.449219 C 42.613281 16.382812 42.320312 16.269531 42.097656 16.121094 C 41.886719 15.972656 41.734375 15.800781 41.65625 15.617188 C 41.566406 15.40625 41.523438 15.1875 41.523438 14.96875 L 41.523438 13.054688 L 43.300781 13.054688 L 43.300781 14.847656 C 43.300781 15.164062 43.371094 15.386719 43.523438 15.527344 C 43.679688 15.667969 43.957031 15.734375 44.367188 15.734375 C 44.488281 15.734375 44.625 15.734375 44.773438 15.726562 C 44.921875 15.71875 45.042969 15.710938 45.152344 15.703125 L 45.152344 13.050781 L 46.921875 13.050781 Z M 54.414062 14.769531 C 54.414062 15.023438 54.34375 15.277344 54.195312 15.515625 C 54.058594 15.726562 53.839844 15.921875 53.554688 16.082031 C 53.269531 16.246094 52.921875 16.367188 52.53125 16.445312 C 52.089844 16.535156 51.617188 16.578125 51.148438 16.574219 C 50.9375 16.574219 50.714844 16.566406 50.480469 16.558594 C 50.246094 16.546875 50.019531 16.53125 49.789062 16.515625 C 49.5625 16.496094 49.347656 16.476562 49.144531 16.453125 C 48.9375 16.429688 48.75 16.402344 48.589844 16.378906 L 48.589844 11.578125 L 50.367188 11.421875 L 50.367188 13.132812 C 50.566406 13.085938 50.773438 13.046875 50.984375 13.023438 C 51.214844 12.996094 51.441406 12.980469 51.675781 12.984375 C 52.082031 12.980469 52.480469 13.023438 52.851562 13.109375 C 53.183594 13.191406 53.484375 13.316406 53.710938 13.472656 C 53.953125 13.640625 54.125 13.832031 54.230469 14.039062 C 54.359375 14.277344 54.414062 14.523438 54.414062 14.769531 Z M 52.601562 14.746094 C 52.601562 14.117188 52.179688 13.804688 51.339844 13.804688 C 51.164062 13.804688 50.980469 13.816406 50.800781 13.84375 C 50.652344 13.863281 50.5 13.898438 50.367188 13.945312 L 50.367188 15.710938 C 50.453125 15.71875 50.558594 15.726562 50.695312 15.734375 C 50.828125 15.742188 50.980469 15.746094 51.136719 15.746094 C 51.5625 15.761719 51.980469 15.65625 52.238281 15.46875 C 52.5 15.257812 52.628906 15 52.601562 14.746094 Z M 55.484375 14.796875 C 55.46875 14.523438 55.554688 14.25 55.738281 13.996094 C 55.886719 13.785156 56.117188 13.589844 56.40625 13.425781 C 56.679688 13.277344 57.003906 13.160156 57.367188 13.082031 C 57.714844 13.007812 58.09375 12.964844 58.476562 12.964844 C 59.367188 12.964844 60.0625 13.113281 60.582031 13.414062 C 61.097656 13.710938 61.351562 14.152344 61.351562 14.730469 C 61.351562 14.785156 61.351562 14.847656 61.34375 14.914062 C 61.339844 14.984375 61.332031 15.042969 61.316406 15.09375 L 57.296875 15.09375 C 57.332031 15.289062 57.515625 15.464844 57.808594 15.570312 C 58.171875 15.699219 58.597656 15.761719 59.027344 15.75 C 59.347656 15.75 59.664062 15.730469 59.984375 15.699219 C 60.25 15.675781 60.503906 15.632812 60.746094 15.578125 L 60.988281 16.367188 C 60.867188 16.398438 60.742188 16.425781 60.613281 16.445312 C 60.433594 16.476562 60.257812 16.496094 60.078125 16.515625 C 59.886719 16.535156 59.671875 16.550781 59.460938 16.566406 C 59.230469 16.578125 59.011719 16.585938 58.789062 16.585938 C 58.285156 16.589844 57.789062 16.542969 57.316406 16.449219 C 56.933594 16.367188 56.578125 16.238281 56.285156 16.070312 C 56.007812 15.910156 55.800781 15.71875 55.679688 15.507812 C 55.546875 15.277344 55.476562 15.039062 55.476562 14.796875 Z M 59.644531 14.425781 C 59.636719 14.34375 59.609375 14.261719 59.566406 14.183594 C 59.523438 14.105469 59.453125 14.035156 59.367188 13.972656 C 59.265625 13.910156 59.152344 13.859375 59.019531 13.824219 C 58.855469 13.78125 58.675781 13.761719 58.5 13.765625 C 58.328125 13.761719 58.152344 13.78125 57.988281 13.820312 C 57.851562 13.855469 57.730469 13.90625 57.632812 13.96875 C 57.539062 14.03125 57.460938 14.101562 57.410156 14.179688 C 57.359375 14.261719 57.324219 14.34375 57.296875 14.425781 Z M 66.496094 13.914062 C 66.332031 13.894531 66.148438 13.871094 65.941406 13.847656 C 65.714844 13.820312 65.484375 13.808594 65.25 13.808594 C 65.117188 13.8125 64.988281 13.816406 64.851562 13.828125 C 64.738281 13.832031 64.617188 13.847656 64.503906 13.863281 L 64.503906 16.484375 L 62.734375 16.484375 L 62.734375 13.234375 C 63.09375 13.167969 63.472656 13.109375 63.851562 13.0625 C 64.320312 13.007812 64.804688 12.980469 65.292969 12.980469 C 65.386719 12.980469 65.5 12.984375 65.636719 12.992188 C 65.769531 13 65.90625 13.007812 66.039062 13.019531 C 66.175781 13.027344 66.3125 13.042969 66.445312 13.058594 C 66.558594 13.070312 66.675781 13.089844 66.789062 13.113281 Z M 67.742188 13.171875 C 68.125 13.113281 68.515625 13.070312 68.910156 13.039062 C 69.40625 12.996094 69.90625 12.972656 70.410156 12.976562 C 70.859375 12.96875 71.3125 13.007812 71.738281 13.089844 C 72.066406 13.15625 72.351562 13.265625 72.578125 13.414062 C 72.785156 13.558594 72.933594 13.726562 73.019531 13.910156 C 73.105469 14.117188 73.148438 14.332031 73.148438 14.550781 L 73.148438 16.488281 L 71.371094 16.488281 L 71.371094 14.667969 C 71.371094 14.351562 71.300781 14.128906 71.148438 14 C 70.992188 13.871094 70.714844 13.804688 70.304688 13.804688 C 70.183594 13.804688 70.046875 13.808594 69.898438 13.816406 C 69.753906 13.820312 69.625 13.828125 69.519531 13.839844 L 69.519531 16.488281 L 67.75 16.488281 L 67.75 13.171875 Z M 74.449219 14.796875 C 74.4375 14.523438 74.527344 14.25 74.707031 13.996094 C 74.855469 13.785156 75.085938 13.589844 75.375 13.425781 C 75.644531 13.277344 75.972656 13.160156 76.328125 13.082031 C 76.683594 13.007812 77.0625 12.964844 77.4375 12.964844 C 78.328125 12.964844 79.03125 13.113281 79.546875 13.414062 C 80.058594 13.710938 80.320312 14.152344 80.320312 14.730469 C 80.320312 14.785156 80.3125 14.847656 80.304688 14.914062 C 80.300781 14.984375 80.285156 15.042969 80.277344 15.09375 L 76.257812 15.09375 C 76.292969 15.289062 76.480469 15.464844 76.769531 15.570312 C 77.132812 15.699219 77.558594 15.761719 77.988281 15.75 C 78.308594 15.75 78.628906 15.730469 78.949219 15.699219 C 79.210938 15.675781 79.46875 15.632812 79.707031 15.578125 L 79.949219 16.367188 C 79.828125 16.398438 79.703125 16.425781 79.574219 16.445312 C 79.394531 16.476562 79.21875 16.496094 79.039062 16.515625 C 78.847656 16.535156 78.632812 16.550781 78.414062 16.566406 C 78.195312 16.578125 77.972656 16.585938 77.753906 16.585938 C 77.246094 16.589844 76.75 16.542969 76.28125 16.449219 C 75.886719 16.367188 75.539062 16.238281 75.246094 16.070312 C 74.96875 15.910156 74.765625 15.714844 74.644531 15.503906 C 74.515625 15.277344 74.445312 15.039062 74.449219 14.796875 Z M 78.613281 14.425781 C 78.605469 14.34375 78.578125 14.261719 78.535156 14.183594 C 78.492188 14.105469 78.429688 14.035156 78.335938 13.972656 C 78.242188 13.910156 78.121094 13.859375 77.988281 13.824219 C 77.832031 13.78125 77.652344 13.761719 77.476562 13.765625 C 77.296875 13.761719 77.117188 13.78125 76.960938 13.820312 C 76.820312 13.855469 76.699219 13.90625 76.605469 13.96875 C 76.507812 14.03125 76.429688 14.101562 76.386719 14.179688 C 76.328125 14.261719 76.292969 14.34375 76.273438 14.425781 Z M 81.628906 12.195312 L 83.410156 12.039062 L 83.410156 13.046875 L 85.535156 13.046875 L 85.535156 13.855469 L 83.410156 13.855469 L 83.410156 15.0625 C 83.394531 15.234375 83.457031 15.402344 83.601562 15.554688 C 83.734375 15.671875 84 15.734375 84.390625 15.734375 C 84.589844 15.734375 84.789062 15.722656 84.980469 15.703125 C 85.164062 15.6875 85.351562 15.660156 85.527344 15.625 L 85.785156 16.382812 C 85.550781 16.433594 85.308594 16.472656 85.066406 16.503906 C 84.753906 16.542969 84.425781 16.5625 84.105469 16.558594 C 83.691406 16.566406 83.289062 16.527344 82.902344 16.449219 C 82.605469 16.386719 82.347656 16.28125 82.140625 16.148438 C 81.941406 16.011719 81.808594 15.851562 81.742188 15.679688 C 81.664062 15.480469 81.628906 15.28125 81.628906 15.078125 Z M 86.480469 14.796875 C 86.46875 14.523438 86.554688 14.25 86.730469 13.996094 C 86.886719 13.785156 87.117188 13.589844 87.40625 13.425781 C 87.675781 13.277344 88.003906 13.160156 88.367188 13.082031 C 88.714844 13.007812 89.09375 12.964844 89.476562 12.964844 C 90.367188 12.964844 91.0625 13.113281 91.582031 13.414062 C 92.097656 13.710938 92.351562 14.148438 92.351562 14.726562 C 92.351562 14.78125 92.351562 14.84375 92.335938 14.914062 C 92.332031 14.980469 92.324219 15.039062 92.316406 15.09375 L 88.296875 15.09375 C 88.332031 15.285156 88.515625 15.460938 88.808594 15.570312 C 89.171875 15.695312 89.597656 15.757812 90.027344 15.746094 C 90.34375 15.746094 90.664062 15.730469 90.980469 15.695312 C 91.242188 15.671875 91.503906 15.628906 91.746094 15.574219 L 91.988281 16.363281 C 91.867188 16.398438 91.742188 16.421875 91.605469 16.445312 C 91.433594 16.472656 91.257812 16.496094 91.078125 16.511719 C 90.886719 16.53125 90.671875 16.550781 90.453125 16.5625 C 90.230469 16.574219 90.011719 16.582031 89.789062 16.582031 C 89.285156 16.585938 88.789062 16.542969 88.316406 16.445312 C 87.925781 16.363281 87.578125 16.234375 87.285156 16.070312 C 87.007812 15.90625 86.796875 15.714844 86.675781 15.503906 C 86.539062 15.277344 86.476562 15.039062 86.476562 14.796875 Z M 90.644531 14.425781 C 90.636719 14.34375 90.609375 14.261719 90.566406 14.183594 C 90.53125 14.105469 90.460938 14.035156 90.367188 13.972656 C 90.273438 13.910156 90.152344 13.859375 90.019531 13.824219 C 89.863281 13.78125 89.683594 13.761719 89.507812 13.765625 C 89.328125 13.761719 89.148438 13.78125 88.992188 13.820312 C 88.851562 13.855469 88.730469 13.902344 88.625 13.964844 C 88.53125 14.03125 88.453125 14.101562 88.402344 14.179688 C 88.351562 14.257812 88.316406 14.339844 88.289062 14.425781 Z M 95.519531 15.789062 C 95.753906 15.796875 95.988281 15.78125 96.207031 15.738281 C 96.34375 15.699219 96.421875 15.621094 96.40625 15.535156 C 96.394531 15.449219 96.292969 15.371094 96.144531 15.335938 C 95.886719 15.253906 95.625 15.1875 95.347656 15.132812 C 95.089844 15.082031 94.84375 15.023438 94.59375 14.957031 C 94.378906 14.902344 94.1875 14.828125 94.015625 14.738281 C 93.851562 14.652344 93.734375 14.550781 93.648438 14.433594 C 93.554688 14.300781 93.511719 14.15625 93.519531 14.011719 C 93.496094 13.714844 93.738281 13.429688 94.171875 13.246094 C 94.609375 13.058594 95.207031 12.964844 95.964844 12.964844 C 96.335938 12.964844 96.707031 12.984375 97.070312 13.019531 C 97.355469 13.046875 97.632812 13.089844 97.902344 13.140625 L 97.597656 13.898438 C 97.375 13.859375 97.148438 13.824219 96.921875 13.796875 C 96.65625 13.765625 96.378906 13.75 96.109375 13.753906 C 95.554688 13.753906 95.277344 13.839844 95.277344 14.007812 C 95.277344 14.042969 95.285156 14.078125 95.304688 14.109375 C 95.339844 14.144531 95.390625 14.175781 95.453125 14.195312 C 95.546875 14.230469 95.640625 14.261719 95.746094 14.289062 C 95.867188 14.320312 96.023438 14.359375 96.214844 14.398438 C 96.542969 14.460938 96.863281 14.539062 97.175781 14.628906 C 97.402344 14.695312 97.601562 14.777344 97.773438 14.878906 C 97.914062 14.964844 98.023438 15.066406 98.085938 15.175781 C 98.152344 15.300781 98.179688 15.425781 98.171875 15.554688 C 98.207031 15.859375 97.945312 16.152344 97.480469 16.324219 C 97.011719 16.496094 96.359375 16.582031 95.511719 16.585938 C 95.046875 16.589844 94.578125 16.5625 94.125 16.507812 C 93.867188 16.472656 93.613281 16.429688 93.363281 16.375 L 93.652344 15.585938 C 93.960938 15.648438 94.265625 15.703125 94.585938 15.738281 C 94.890625 15.773438 95.207031 15.789062 95.519531 15.789062 Z M 95.519531 15.789062 "/>
</g>
</svg>
