<?xml version="1.0" encoding="UTF-8"?>
<svg xmlns="http://www.w3.org/2000/svg" xmlns:xlink="http://www.w3.org/1999/xlink" width="56px" height="28px" viewBox="0 0 56 28" version="1.1">
<g id="surface1">
<path style=" stroke:none;fill-rule:nonzero;fill:rgb(19.607843%,42.352941%,89.803922%);fill-opacity:1;" d="M 9.433594 6.835938 C 9.300781 6.84375 9.171875 6.878906 9.054688 6.9375 L 3.914062 9.390625 C 3.644531 9.515625 3.449219 9.761719 3.382812 10.050781 L 2.125 15.558594 C 2.0625 15.816406 2.113281 16.085938 2.257812 16.308594 C 2.273438 16.335938 2.292969 16.359375 2.3125 16.386719 L 5.867188 20.804688 C 6.054688 21.035156 6.335938 21.167969 6.632812 21.167969 L 12.335938 21.167969 C 12.632812 21.167969 12.914062 21.03125 13.101562 20.800781 L 16.65625 16.378906 C 16.839844 16.148438 16.910156 15.84375 16.84375 15.554688 L 15.578125 10.042969 C 15.507812 9.753906 15.3125 9.511719 15.046875 9.382812 L 9.910156 6.9375 C 9.761719 6.863281 9.597656 6.828125 9.433594 6.835938 Z M 9.433594 6.835938 "/>
<path style="fill-rule:nonzero;fill:rgb(100%,100%,100%);fill-opacity:1;stroke-width:0.25;stroke-linecap:butt;stroke-linejoin:miter;stroke:rgb(100%,100%,100%);stroke-opacity:1;stroke-miterlimit:4;" d="M 83.280464 -63.592492 C 81.536183 -63.476206 80.179519 -61.964495 80.295805 -60.220214 L 80.295805 -59.367454 C 80.373328 -58.359647 80.489614 -57.390602 80.683423 -56.460318 C 80.993517 -54.599751 81.071041 -52.777946 80.993517 -50.917379 C 80.83847 -50.29719 80.489614 -49.754525 79.98571 -49.328145 L 79.946949 -48.049005 C 78.086382 -47.893958 76.225815 -47.583863 74.404009 -47.196245 C 66.767933 -45.451964 59.829568 -41.498259 54.480438 -35.800273 L 53.395108 -36.575509 C 52.774919 -36.420462 52.115968 -36.459223 51.573302 -36.769318 C 50.100354 -37.854649 48.704928 -39.095027 47.46455 -40.45169 C 46.844361 -41.226926 46.185411 -41.924639 45.448936 -42.58359 L 44.789985 -43.126255 C 44.169796 -43.630158 43.433322 -43.901491 42.658086 -43.940253 C 41.727802 -43.979015 40.836281 -43.591397 40.216092 -42.854922 C 39.208284 -41.420735 39.518379 -39.405121 40.991328 -38.358552 L 41.611517 -37.854649 C 42.425515 -37.311983 43.278275 -36.80808 44.131035 -36.3817 C 45.759031 -35.490178 47.309503 -34.404847 48.704928 -33.203231 C 49.092546 -32.699328 49.286355 -32.079139 49.325117 -31.45895 L 50.332924 -30.60619 C 44.945033 -22.504971 42.696847 -12.698233 44.092273 -3.085303 L 42.813133 -2.697685 C 42.503038 -2.15502 42.037897 -1.72864 41.495231 -1.379784 C 39.712188 -0.914642 37.890383 -0.604547 36.029816 -0.488262 C 35.060771 -0.4495 34.091725 -0.371977 33.12268 -0.255691 L 32.308682 -0.0618821 L 32.192397 -0.0618821 C 31.068304 0.0931651 30.099259 0.907163 29.711641 1.992494 C 29.324022 3.077825 29.634117 4.318203 30.448115 5.132201 C 31.262113 5.946199 32.463729 6.256293 33.587822 5.907437 L 33.626584 5.907437 L 34.479343 5.791151 C 35.409627 5.519819 36.301149 5.170962 37.19267 4.783344 C 38.936952 4.085632 40.681233 3.581728 42.503038 3.232872 C 43.161989 3.271634 43.743416 3.465443 44.286082 3.853061 L 45.603983 3.62049 C 48.588643 12.845801 54.829295 20.675687 63.201846 25.637199 L 62.620419 26.800053 C 62.891751 27.342719 62.969275 27.924146 62.891751 28.505573 C 62.155277 30.249855 61.224993 31.916613 60.139663 33.505847 C 59.558236 34.281083 59.01557 35.095081 58.511667 35.947841 L 58.085287 36.761839 C 57.50386 37.769646 57.542621 39.010024 58.16281 39.979069 C 58.821761 40.948115 59.945854 41.49078 61.069946 41.374495 C 62.232801 41.219447 63.201846 40.482973 63.628226 39.397642 L 63.977082 38.583644 C 64.325938 37.692122 64.636033 36.761839 64.868604 35.792794 C 65.682602 33.815941 66.108982 31.64528 67.233074 30.327378 C 67.581931 29.978522 68.047072 29.745951 68.550976 29.668427 L 69.248689 28.428049 C 78.280191 31.916613 88.3195 31.955374 97.389764 28.505573 L 97.971191 29.668427 C 98.630142 29.784713 99.172807 30.094807 99.560425 30.598711 C 100.413185 32.265469 101.110898 33.970989 101.653563 35.754032 C 101.886134 36.684315 102.196228 37.614599 102.545085 38.544882 L 102.893941 39.320119 C 103.320321 40.405449 104.289366 41.180686 105.452221 41.296971 C 106.576313 41.413256 107.700406 40.909353 108.359357 39.940308 C 108.979546 38.9325 109.018307 37.692122 108.43688 36.723077 L 108.0105 35.909079 C 107.506597 35.056319 106.963931 34.242321 106.382504 33.467085 C 105.335935 31.955374 104.405652 30.327378 103.669177 28.621859 C 103.51413 28.00167 103.630415 27.342719 103.979272 26.800053 C 103.785463 26.373673 103.630415 25.986055 103.475368 25.559675 C 111.809158 20.598164 118.049809 12.729516 120.995707 3.465443 L 122.313609 3.698014 C 122.77875 3.271634 123.360178 3.039063 124.019128 3.077825 C 125.840934 3.426681 127.623977 3.930584 129.329497 4.628297 C 130.221018 5.054677 131.151302 5.403533 132.081585 5.713628 C 132.275394 5.75239 132.624251 5.791151 132.856822 5.868675 L 132.934345 5.868675 C 134.019676 6.217531 135.260054 5.946199 136.074052 5.132201 C 136.88805 4.279441 137.159383 3.077825 136.771764 1.953732 C 136.422908 0.868401 135.453863 0.0931651 134.291009 -0.0618821 L 133.360725 -0.255691 C 132.39168 -0.410738 131.422634 -0.488262 130.453589 -0.488262 C 128.593022 -0.604547 126.771217 -0.914642 124.988174 -1.418546 C 124.406747 -1.689878 123.980367 -2.15502 123.670272 -2.736447 L 122.429894 -3.085303 C 123.747796 -12.698233 121.499611 -22.466209 116.072957 -30.528666 L 117.158288 -31.536473 C 117.119526 -32.156662 117.313335 -32.776851 117.739715 -33.241993 C 119.13514 -34.482371 120.646851 -35.52894 122.274847 -36.459223 C 123.127607 -36.885603 123.980367 -37.389507 124.794365 -37.932172 L 125.453315 -38.474838 C 126.461123 -39.095027 127.04255 -40.257881 126.887503 -41.420735 C 126.771217 -42.58359 125.957219 -43.591397 124.871888 -43.979015 C 123.747796 -44.366633 122.507418 -44.0953 121.654658 -43.24254 L 120.995707 -42.699875 C 120.297995 -42.040924 119.600282 -41.30445 118.980093 -40.567975 C 117.778477 -39.17255 116.460575 -37.932172 114.987626 -36.80808 C 114.406199 -36.575509 113.747248 -36.497985 113.127059 -36.614271 L 111.964205 -35.761511 C 105.297173 -42.777399 96.265671 -47.118722 86.61398 -48.010243 C 86.61398 -48.397861 86.575218 -49.134336 86.575218 -49.366907 C 86.032553 -49.715763 85.683697 -50.258428 85.567411 -50.878617 C 85.489888 -52.739184 85.606173 -54.599751 85.916268 -56.421556 C 86.110077 -57.35184 86.265124 -58.320885 86.342647 -59.328692 L 86.342647 -60.181452 C 86.420171 -61.925734 85.102269 -63.437444 83.319226 -63.55373 Z M 79.443045 -39.947786 L 78.551523 -23.939158 L 78.474 -23.939158 C 78.435238 -22.931351 77.853811 -22.078591 76.962289 -21.613449 C 76.070767 -21.18707 75.024198 -21.303355 74.2102 -21.884782 L 61.108708 -31.187617 C 65.294984 -35.296369 70.527828 -38.125981 76.225815 -39.405121 C 77.311145 -39.637692 78.396476 -39.831501 79.481807 -39.947786 Z M 87.117884 -39.947786 C 93.978724 -39.095027 100.413185 -35.994082 105.374697 -31.148855 L 92.350728 -21.884782 C 91.575492 -21.264593 90.490161 -21.109546 89.559878 -21.574688 C 88.629594 -22.001068 88.009405 -22.931351 88.009405 -23.939158 Z M 56.302243 -25.140774 L 68.318405 -14.442514 L 68.318405 -14.364991 C 69.054879 -13.744802 69.403736 -12.736995 69.171165 -11.767949 C 68.938594 -10.798904 68.20212 -10.023668 67.271836 -9.752335 L 67.271836 -9.713573 L 51.844635 -5.294727 C 51.108161 -12.233091 52.658633 -19.210217 56.302243 -25.140774 Z M 110.1424 -25.140774 C 113.78601 -19.210217 115.414006 -12.271853 114.755055 -5.333489 L 99.327854 -9.752335 L 99.327854 -9.829859 C 98.358809 -10.101191 97.622335 -10.876428 97.389764 -11.806711 C 97.195955 -12.775756 97.506049 -13.783563 98.242524 -14.442514 L 110.1424 -25.102012 Z M 80.83847 -13.589754 L 85.722458 -13.589754 L 88.707118 -9.791097 L 87.621787 -5.023394 L 83.202941 -2.930256 L 78.784094 -5.023394 L 77.776287 -9.791097 Z M 96.537004 -0.604547 C 96.769575 -0.643309 96.963384 -0.643309 97.157193 -0.604547 L 113.049536 2.070018 C 110.723827 8.698287 106.227457 14.31875 100.335661 18.078646 L 94.211295 3.19411 C 93.862439 2.380112 93.939963 1.449829 94.405104 0.713354 C 94.870246 -0.0231203 95.645482 -0.488262 96.537004 -0.565786 Z M 69.868877 -0.527024 C 70.760399 -0.527024 71.613159 -0.0618821 72.078301 0.713354 C 72.582204 1.449829 72.659728 2.380112 72.310872 3.232872 L 72.310872 3.271634 L 66.186505 18.001122 C 60.372234 14.241226 55.953387 8.698287 53.588917 2.186303 L 69.326212 -0.488262 C 69.481259 -0.527024 69.675068 -0.527024 69.868877 -0.488262 Z M 83.164179 5.946199 C 84.210748 5.907437 85.141031 6.450102 85.644935 7.341624 L 85.683697 7.341624 L 93.474821 21.334638 C 92.428252 21.683494 91.420445 21.954827 90.373876 22.22616 C 84.637128 23.505299 78.706571 23.195205 73.163631 21.334638 L 80.877232 7.302862 C 81.381136 6.488864 82.233895 5.98496 83.164179 5.98496 Z M 83.164179 5.946199 " transform="matrix(0.100776,0,0,0.100776,1.091725,15.119517)"/>
<path style=" stroke:none;fill-rule:nonzero;fill:rgb(0%,0%,0%);fill-opacity:1;" d="M 20.089844 14.289062 L 20.386719 13.960938 C 20.488281 13.851562 20.589844 13.738281 20.683594 13.628906 L 20.957031 13.3125 C 21.042969 13.214844 21.113281 13.128906 21.175781 13.054688 L 22.332031 13.054688 C 22.101562 13.320312 21.875 13.570312 21.65625 13.8125 C 21.4375 14.054688 21.195312 14.300781 20.933594 14.558594 C 21.078125 14.691406 21.214844 14.832031 21.339844 14.980469 C 21.476562 15.144531 21.613281 15.3125 21.742188 15.484375 C 21.871094 15.65625 21.992188 15.832031 22.101562 16.007812 C 22.210938 16.183594 22.300781 16.34375 22.375 16.484375 L 21.257812 16.484375 C 21.1875 16.371094 21.109375 16.246094 21.019531 16.109375 C 20.925781 15.972656 20.832031 15.835938 20.734375 15.703125 C 20.636719 15.570312 20.53125 15.4375 20.417969 15.308594 C 20.320312 15.191406 20.207031 15.085938 20.089844 14.988281 L 20.089844 16.492188 L 19.117188 16.492188 L 19.117188 11.578125 L 20.089844 11.421875 Z M 25.761719 16.371094 C 25.554688 16.429688 25.339844 16.472656 25.125 16.503906 C 24.851562 16.546875 24.578125 16.570312 24.300781 16.566406 C 24.054688 16.574219 23.804688 16.535156 23.574219 16.449219 C 23.394531 16.382812 23.234375 16.269531 23.113281 16.121094 C 22.996094 15.972656 22.914062 15.800781 22.871094 15.617188 C 22.820312 15.40625 22.796875 15.1875 22.796875 14.96875 L 22.796875 13.054688 L 23.773438 13.054688 L 23.773438 14.847656 C 23.773438 15.164062 23.8125 15.386719 23.894531 15.527344 C 23.980469 15.667969 24.132812 15.734375 24.359375 15.734375 C 24.425781 15.734375 24.5 15.734375 24.582031 15.726562 C 24.664062 15.71875 24.730469 15.710938 24.789062 15.703125 L 24.789062 13.050781 L 25.761719 13.050781 Z M 29.875 14.769531 C 29.875 15.023438 29.835938 15.277344 29.753906 15.515625 C 29.679688 15.726562 29.558594 15.921875 29.402344 16.082031 C 29.246094 16.246094 29.054688 16.367188 28.839844 16.445312 C 28.597656 16.535156 28.339844 16.578125 28.082031 16.574219 C 27.964844 16.574219 27.84375 16.566406 27.714844 16.558594 C 27.585938 16.546875 27.460938 16.53125 27.335938 16.515625 C 27.210938 16.496094 27.09375 16.476562 26.980469 16.453125 C 26.867188 16.429688 26.765625 16.402344 26.675781 16.378906 L 26.675781 11.578125 L 27.652344 11.421875 L 27.652344 13.132812 C 27.761719 13.085938 27.875 13.046875 27.992188 13.023438 C 28.117188 12.996094 28.242188 12.980469 28.371094 12.984375 C 28.59375 12.980469 28.8125 13.023438 29.015625 13.109375 C 29.199219 13.191406 29.363281 13.316406 29.488281 13.472656 C 29.621094 13.640625 29.714844 13.832031 29.773438 14.039062 C 29.84375 14.277344 29.875 14.523438 29.875 14.769531 Z M 28.878906 14.746094 C 28.878906 14.117188 28.648438 13.804688 28.1875 13.804688 C 28.089844 13.804688 27.988281 13.816406 27.890625 13.84375 C 27.808594 13.863281 27.726562 13.898438 27.652344 13.945312 L 27.652344 15.710938 C 27.699219 15.71875 27.757812 15.726562 27.832031 15.734375 C 27.90625 15.742188 27.988281 15.746094 28.074219 15.746094 C 28.308594 15.761719 28.539062 15.65625 28.679688 15.46875 C 28.824219 15.257812 28.894531 15 28.878906 14.746094 Z M 30.460938 14.796875 C 30.453125 14.523438 30.5 14.25 30.601562 13.996094 C 30.683594 13.785156 30.808594 13.589844 30.96875 13.425781 C 31.117188 13.277344 31.296875 13.160156 31.496094 13.082031 C 31.6875 13.007812 31.894531 12.964844 32.105469 12.964844 C 32.59375 12.964844 32.976562 13.113281 33.261719 13.414062 C 33.542969 13.710938 33.683594 14.152344 33.683594 14.730469 C 33.683594 14.785156 33.683594 14.847656 33.679688 14.914062 C 33.675781 14.984375 33.671875 15.042969 33.664062 15.09375 L 31.457031 15.09375 C 31.476562 15.289062 31.578125 15.464844 31.738281 15.570312 C 31.9375 15.699219 32.171875 15.761719 32.40625 15.75 C 32.582031 15.75 32.757812 15.730469 32.933594 15.699219 C 33.078125 15.675781 33.21875 15.632812 33.351562 15.578125 L 33.484375 16.367188 C 33.417969 16.398438 33.347656 16.425781 33.277344 16.445312 C 33.179688 16.476562 33.082031 16.496094 32.984375 16.515625 C 32.878906 16.535156 32.761719 16.550781 32.644531 16.566406 C 32.519531 16.578125 32.398438 16.585938 32.277344 16.585938 C 32 16.589844 31.726562 16.542969 31.46875 16.449219 C 31.257812 16.367188 31.0625 16.238281 30.902344 16.070312 C 30.75 15.910156 30.636719 15.71875 30.570312 15.507812 C 30.496094 15.277344 30.457031 15.039062 30.457031 14.796875 Z M 32.746094 14.425781 C 32.742188 14.34375 32.726562 14.261719 32.703125 14.183594 C 32.679688 14.105469 32.640625 14.035156 32.59375 13.972656 C 32.539062 13.910156 32.476562 13.859375 32.402344 13.824219 C 32.3125 13.78125 32.214844 13.761719 32.117188 13.765625 C 32.023438 13.761719 31.925781 13.78125 31.835938 13.820312 C 31.761719 13.855469 31.695312 13.90625 31.640625 13.96875 C 31.589844 14.03125 31.546875 14.101562 31.519531 14.179688 C 31.492188 14.261719 31.472656 14.34375 31.457031 14.425781 Z M 36.507812 13.914062 C 36.417969 13.894531 36.316406 13.871094 36.203125 13.847656 C 36.078125 13.820312 35.953125 13.808594 35.824219 13.808594 C 35.75 13.8125 35.679688 13.816406 35.605469 13.828125 C 35.542969 13.832031 35.476562 13.847656 35.414062 13.863281 L 35.414062 16.484375 L 34.441406 16.484375 L 34.441406 13.234375 C 34.640625 13.167969 34.847656 13.109375 35.054688 13.0625 C 35.3125 13.007812 35.578125 12.980469 35.847656 12.980469 C 35.898438 12.980469 35.960938 12.984375 36.035156 12.992188 C 36.109375 13 36.183594 13.007812 36.257812 13.019531 C 36.332031 13.027344 36.40625 13.042969 36.480469 13.058594 C 36.542969 13.070312 36.605469 13.089844 36.667969 13.113281 Z M 37.191406 13.171875 C 37.402344 13.113281 37.617188 13.070312 37.832031 13.039062 C 38.105469 12.996094 38.378906 12.972656 38.65625 12.976562 C 38.902344 12.96875 39.152344 13.007812 39.386719 13.089844 C 39.566406 13.15625 39.722656 13.265625 39.847656 13.414062 C 39.960938 13.558594 40.042969 13.726562 40.089844 13.910156 C 40.136719 14.117188 40.160156 14.332031 40.160156 14.550781 L 40.160156 16.488281 L 39.183594 16.488281 L 39.183594 14.667969 C 39.183594 14.351562 39.144531 14.128906 39.0625 14 C 38.976562 13.871094 38.824219 13.804688 38.597656 13.804688 C 38.53125 13.804688 38.457031 13.808594 38.375 13.816406 C 38.296875 13.820312 38.226562 13.828125 38.167969 13.839844 L 38.167969 16.488281 L 37.195312 16.488281 L 37.195312 13.171875 Z M 40.875 14.796875 C 40.867188 14.523438 40.917969 14.25 41.015625 13.996094 C 41.097656 13.785156 41.222656 13.589844 41.382812 13.425781 C 41.53125 13.277344 41.710938 13.160156 41.90625 13.082031 C 42.101562 13.007812 42.308594 12.964844 42.515625 12.964844 C 43.003906 12.964844 43.390625 13.113281 43.671875 13.414062 C 43.953125 13.710938 44.097656 14.152344 44.097656 14.730469 C 44.097656 14.785156 44.09375 14.847656 44.089844 14.914062 C 44.085938 14.984375 44.078125 15.042969 44.074219 15.09375 L 41.867188 15.09375 C 41.886719 15.289062 41.988281 15.464844 42.148438 15.570312 C 42.347656 15.699219 42.582031 15.761719 42.816406 15.75 C 42.992188 15.75 43.167969 15.730469 43.34375 15.699219 C 43.488281 15.675781 43.628906 15.632812 43.761719 15.578125 L 43.894531 16.367188 C 43.828125 16.398438 43.757812 16.425781 43.6875 16.445312 C 43.589844 16.476562 43.492188 16.496094 43.394531 16.515625 C 43.289062 16.535156 43.171875 16.550781 43.050781 16.566406 C 42.929688 16.578125 42.808594 16.585938 42.6875 16.585938 C 42.410156 16.589844 42.136719 16.542969 41.878906 16.449219 C 41.664062 16.367188 41.472656 16.238281 41.3125 16.070312 C 41.160156 15.910156 41.046875 15.714844 40.980469 15.503906 C 40.910156 15.277344 40.871094 15.039062 40.875 14.796875 Z M 43.160156 14.425781 C 43.15625 14.34375 43.140625 14.261719 43.117188 14.183594 C 43.09375 14.105469 43.058594 14.035156 43.007812 13.972656 C 42.957031 13.910156 42.890625 13.859375 42.816406 13.824219 C 42.730469 13.78125 42.632812 13.761719 42.535156 13.765625 C 42.4375 13.761719 42.339844 13.78125 42.253906 13.820312 C 42.175781 13.855469 42.109375 13.90625 42.058594 13.96875 C 42.003906 14.03125 41.960938 14.101562 41.9375 14.179688 C 41.90625 14.261719 41.886719 14.34375 41.875 14.425781 Z M 44.816406 12.195312 L 45.792969 12.039062 L 45.792969 13.046875 L 46.960938 13.046875 L 46.960938 13.855469 L 45.792969 13.855469 L 45.792969 15.0625 C 45.785156 15.234375 45.820312 15.402344 45.898438 15.554688 C 45.972656 15.671875 46.117188 15.734375 46.332031 15.734375 C 46.441406 15.734375 46.550781 15.722656 46.65625 15.703125 C 46.757812 15.6875 46.859375 15.660156 46.957031 15.625 L 47.097656 16.382812 C 46.96875 16.433594 46.835938 16.472656 46.703125 16.503906 C 46.53125 16.542969 46.351562 16.5625 46.175781 16.558594 C 45.949219 16.566406 45.726562 16.527344 45.515625 16.449219 C 45.351562 16.386719 45.210938 16.28125 45.097656 16.148438 C 44.988281 16.011719 44.914062 15.851562 44.878906 15.679688 C 44.835938 15.480469 44.816406 15.28125 44.816406 15.078125 Z M 47.480469 14.796875 C 47.472656 14.523438 47.519531 14.25 47.617188 13.996094 C 47.703125 13.785156 47.828125 13.589844 47.988281 13.425781 C 48.136719 13.277344 48.316406 13.160156 48.515625 13.082031 C 48.707031 13.007812 48.914062 12.964844 49.125 12.964844 C 49.613281 12.964844 49.996094 13.113281 50.28125 13.414062 C 50.5625 13.710938 50.703125 14.148438 50.703125 14.726562 C 50.703125 14.78125 50.703125 14.84375 50.695312 14.914062 C 50.691406 14.980469 50.6875 15.039062 50.683594 15.09375 L 48.476562 15.09375 C 48.496094 15.285156 48.597656 15.460938 48.757812 15.570312 C 48.957031 15.695312 49.191406 15.757812 49.425781 15.746094 C 49.601562 15.746094 49.777344 15.730469 49.949219 15.695312 C 50.09375 15.671875 50.238281 15.628906 50.371094 15.574219 L 50.503906 16.363281 C 50.4375 16.398438 50.367188 16.421875 50.292969 16.445312 C 50.199219 16.472656 50.101562 16.496094 50.003906 16.511719 C 49.898438 16.53125 49.78125 16.550781 49.660156 16.5625 C 49.539062 16.574219 49.417969 16.582031 49.296875 16.582031 C 49.019531 16.585938 48.746094 16.542969 48.488281 16.445312 C 48.273438 16.363281 48.082031 16.234375 47.921875 16.070312 C 47.769531 15.90625 47.652344 15.714844 47.585938 15.503906 C 47.511719 15.277344 47.476562 15.039062 47.476562 14.796875 Z M 49.765625 14.425781 C 49.761719 14.34375 49.746094 14.261719 49.722656 14.183594 C 49.703125 14.105469 49.664062 14.035156 49.613281 13.972656 C 49.5625 13.910156 49.496094 13.859375 49.421875 13.824219 C 49.335938 13.78125 49.238281 13.761719 49.140625 13.765625 C 49.042969 13.761719 48.945312 13.78125 48.859375 13.820312 C 48.78125 13.855469 48.714844 13.902344 48.65625 13.964844 C 48.605469 14.03125 48.5625 14.101562 48.535156 14.179688 C 48.507812 14.257812 48.488281 14.339844 48.472656 14.425781 Z M 52.441406 15.789062 C 52.570312 15.796875 52.699219 15.78125 52.820312 15.738281 C 52.894531 15.699219 52.9375 15.621094 52.929688 15.535156 C 52.921875 15.449219 52.867188 15.371094 52.785156 15.335938 C 52.644531 15.253906 52.5 15.1875 52.347656 15.132812 C 52.207031 15.082031 52.070312 15.023438 51.933594 14.957031 C 51.816406 14.902344 51.710938 14.828125 51.617188 14.738281 C 51.527344 14.652344 51.460938 14.550781 51.414062 14.433594 C 51.363281 14.300781 51.339844 14.15625 51.34375 14.011719 C 51.332031 13.714844 51.464844 13.429688 51.703125 13.246094 C 51.941406 13.058594 52.269531 12.964844 52.6875 12.964844 C 52.890625 12.964844 53.09375 12.984375 53.292969 13.019531 C 53.449219 13.046875 53.601562 13.089844 53.75 13.140625 L 53.582031 13.898438 C 53.460938 13.859375 53.335938 13.824219 53.210938 13.796875 C 53.066406 13.765625 52.914062 13.75 52.765625 13.753906 C 52.460938 13.753906 52.308594 13.839844 52.308594 14.007812 C 52.308594 14.042969 52.3125 14.078125 52.324219 14.109375 C 52.34375 14.144531 52.371094 14.175781 52.40625 14.195312 C 52.457031 14.230469 52.507812 14.261719 52.566406 14.289062 C 52.632812 14.320312 52.71875 14.359375 52.824219 14.398438 C 53.003906 14.460938 53.179688 14.539062 53.351562 14.628906 C 53.476562 14.695312 53.585938 14.777344 53.679688 14.878906 C 53.757812 14.964844 53.816406 15.066406 53.851562 15.175781 C 53.886719 15.300781 53.902344 15.425781 53.898438 15.554688 C 53.917969 15.859375 53.773438 16.152344 53.519531 16.324219 C 53.261719 16.496094 52.902344 16.582031 52.4375 16.585938 C 52.183594 16.589844 51.925781 16.5625 51.675781 16.507812 C 51.535156 16.472656 51.394531 16.429688 51.257812 16.375 L 51.417969 15.585938 C 51.585938 15.648438 51.753906 15.703125 51.929688 15.738281 C 52.097656 15.773438 52.269531 15.789062 52.441406 15.789062 Z M 52.441406 15.789062 "/>
</g>
</svg>
