<?xml version="1.0" encoding="UTF-8"?>
<svg xmlns="http://www.w3.org/2000/svg" xmlns:xlink="http://www.w3.org/1999/xlink" width="53px" height="28px" viewBox="0 0 53 28" version="1.1">
<g id="surface1">
<path style=" stroke:none;fill-rule:evenodd;fill:rgb(88.627451%,36.078431%,14.901961%);fill-opacity:1;" d="M 48.328125 14.210938 C 48.28125 14.117188 48.261719 14.066406 48.238281 14.019531 C 47.574219 12.75 46.914062 11.484375 46.246094 10.21875 C 46.179688 10.089844 46.1875 10.015625 46.28125 9.90625 C 47.332031 8.671875 48.378906 7.429688 49.429688 6.183594 C 49.464844 6.140625 49.496094 6.097656 49.511719 6.019531 L 48.589844 6.261719 C 47.316406 6.597656 46.046875 6.9375 44.777344 7.28125 C 44.65625 7.3125 44.605469 7.277344 44.542969 7.175781 C 43.820312 5.960938 43.097656 4.75 42.371094 3.539062 C 42.332031 3.472656 42.292969 3.414062 42.214844 3.359375 C 42.15625 3.683594 42.09375 4.007812 42.039062 4.328125 L 41.433594 7.757812 C 41.414062 7.882812 41.382812 8.007812 41.371094 8.128906 C 41.359375 8.246094 41.300781 8.289062 41.195312 8.324219 C 39.695312 8.796875 38.195312 9.273438 36.699219 9.753906 C 36.632812 9.773438 36.570312 9.800781 36.5 9.863281 C 37.722656 10.351562 38.949219 10.84375 40.195312 11.34375 C 40.148438 11.378906 40.121094 11.40625 40.085938 11.429688 C 39.320312 11.925781 38.554688 12.425781 37.789062 12.929688 C 37.695312 12.988281 37.625 12.996094 37.519531 12.949219 C 36.605469 12.535156 35.6875 12.128906 34.769531 11.714844 C 34.355469 11.53125 33.988281 11.285156 33.699219 10.929688 C 33.046875 10.128906 33.179688 9.214844 34.046875 8.660156 C 34.328125 8.476562 34.652344 8.339844 34.972656 8.234375 C 36.441406 7.753906 37.914062 7.289062 39.386719 6.820312 C 39.511719 6.78125 39.566406 6.726562 39.59375 6.59375 C 39.789062 5.449219 39.992188 4.308594 40.195312 3.164062 C 40.308594 2.554688 40.367188 1.925781 40.660156 1.367188 C 40.773438 1.15625 40.910156 0.941406 41.074219 0.761719 C 41.65625 0.109375 42.472656 0.0820312 43.089844 0.707031 C 43.300781 0.917969 43.480469 1.164062 43.636719 1.417969 C 44.316406 2.535156 44.988281 3.664062 45.65625 4.789062 C 45.734375 4.921875 45.804688 4.949219 45.949219 4.910156 C 47.59375 4.464844 49.238281 4.03125 50.882812 3.589844 C 51.222656 3.5 51.5625 3.46875 51.910156 3.53125 C 52.667969 3.671875 53 4.253906 52.746094 4.992188 C 52.628906 5.328125 52.429688 5.613281 52.203125 5.878906 C 51.054688 7.238281 49.910156 8.597656 48.757812 9.953125 C 48.664062 10.0625 48.660156 10.144531 48.726562 10.265625 C 49.414062 11.570312 50.09375 12.875 50.777344 14.183594 C 50.9375 14.492188 51.0625 14.820312 51.070312 15.175781 C 51.078125 15.992188 50.484375 16.660156 49.679688 16.78125 C 49.230469 16.847656 48.808594 16.75 48.386719 16.617188 C 47.355469 16.296875 46.328125 15.980469 45.292969 15.667969 C 45.195312 15.640625 45.160156 15.601562 45.144531 15.5 C 45.023438 14.769531 44.894531 14.039062 44.769531 13.308594 C 44.769531 13.289062 44.773438 13.265625 44.777344 13.222656 C 45.949219 13.550781 47.117188 13.875 48.328125 14.210938 "/>
<path style=" stroke:none;fill-rule:evenodd;fill:rgb(23.921569%,23.137255%,24.313725%);fill-opacity:1;" d="M 46.320312 24.863281 C 45.394531 24.859375 44.460938 24.855469 43.535156 24.859375 C 43.410156 24.859375 43.34375 24.824219 43.273438 24.71875 C 42.175781 23.03125 41.070312 21.347656 39.964844 19.664062 C 39.929688 19.613281 39.894531 19.558594 39.828125 19.472656 C 39.59375 21.289062 39.359375 23.066406 39.128906 24.847656 L 36.695312 24.847656 C 36.722656 24.609375 36.746094 24.378906 36.777344 24.152344 C 37.015625 22.324219 37.253906 20.5 37.492188 18.671875 C 37.71875 16.929688 37.949219 15.183594 38.175781 13.441406 C 38.183594 13.386719 38.21875 13.324219 38.261719 13.296875 C 39.097656 12.746094 39.9375 12.203125 40.777344 11.65625 C 40.789062 11.644531 40.808594 11.644531 40.847656 11.632812 C 40.59375 13.582031 40.34375 15.515625 40.089844 17.453125 C 40.101562 17.457031 40.109375 17.464844 40.121094 17.472656 C 41.4375 16.003906 42.753906 14.53125 44.101562 13.03125 L 44.207031 13.644531 C 44.300781 14.195312 44.394531 14.753906 44.496094 15.304688 C 44.515625 15.417969 44.488281 15.484375 44.410156 15.5625 C 43.5625 16.460938 42.710938 17.363281 41.863281 18.261719 C 41.828125 18.300781 41.789062 18.34375 41.746094 18.386719 C 41.773438 18.429688 41.796875 18.472656 41.824219 18.511719 L 46.222656 24.722656 C 46.25 24.761719 46.285156 24.789062 46.316406 24.824219 C 46.320312 24.839844 46.320312 24.851562 46.320312 24.863281 M 17.484375 19.480469 C 17.449219 19.289062 17.421875 19.007812 17.339844 18.75 C 16.929688 17.484375 15.644531 16.789062 14.304688 17.101562 C 12.84375 17.445312 11.796875 18.601562 11.644531 20.109375 C 11.53125 21.21875 12.125 22.292969 13.234375 22.695312 C 14.125 23.019531 14.984375 22.882812 15.78125 22.402344 C 16.835938 21.765625 17.410156 20.816406 17.484375 19.480469 Z M 11.054688 24.183594 C 10.984375 24.730469 10.914062 25.242188 10.847656 25.753906 C 10.757812 26.4375 10.671875 27.121094 10.585938 27.800781 C 10.574219 27.882812 10.550781 27.917969 10.464844 27.917969 C 9.796875 27.914062 9.128906 27.914062 8.460938 27.914062 C 8.445312 27.914062 8.429688 27.90625 8.394531 27.894531 C 8.4375 27.570312 8.476562 27.25 8.515625 26.925781 C 8.664062 25.792969 8.8125 24.664062 8.960938 23.53125 C 9.132812 22.238281 9.265625 20.9375 9.484375 19.652344 C 9.871094 17.375 11.792969 15.414062 14.042969 14.925781 C 15.347656 14.640625 16.597656 14.773438 17.738281 15.511719 C 18.871094 16.25 19.523438 17.320312 19.671875 18.664062 C 19.882812 20.566406 19.1875 22.144531 17.84375 23.453125 C 16.964844 24.3125 15.90625 24.855469 14.691406 25.039062 C 13.4375 25.230469 12.257812 25.019531 11.199219 24.277344 C 11.164062 24.25 11.121094 24.226562 11.054688 24.183594 M 9.964844 13.363281 C 9.21875 13.925781 8.492188 14.46875 7.769531 15.011719 C 7.65625 14.824219 7.550781 14.640625 7.425781 14.46875 C 7.109375 14.027344 6.71875 13.695312 6.152344 13.652344 C 5.679688 13.621094 5.273438 13.777344 4.953125 14.128906 C 4.664062 14.445312 4.625 14.886719 4.894531 15.246094 C 5.191406 15.632812 5.515625 16.003906 5.84375 16.363281 C 6.394531 16.960938 6.964844 17.539062 7.511719 18.140625 C 8.011719 18.691406 8.40625 19.304688 8.527344 20.050781 C 8.671875 20.941406 8.496094 21.789062 8.078125 22.574219 C 7.304688 24.023438 6.082031 24.863281 4.476562 25.125 C 3.765625 25.242188 3.054688 25.214844 2.363281 25.011719 C 1.441406 24.742188 0.800781 24.132812 0.390625 23.273438 C 0.242188 22.972656 0.132812 22.652344 0 22.328125 C 0.804688 21.894531 1.589844 21.46875 2.382812 21.042969 C 2.410156 21.109375 2.429688 21.164062 2.457031 21.21875 C 2.589844 21.488281 2.703125 21.777344 2.871094 22.03125 C 3.367188 22.777344 4.171875 23.003906 4.984375 22.636719 C 5.195312 22.539062 5.398438 22.40625 5.570312 22.253906 C 6.09375 21.785156 6.191406 21.132812 5.804688 20.542969 C 5.578125 20.203125 5.300781 19.898438 5.027344 19.59375 C 4.378906 18.867188 3.703125 18.164062 3.066406 17.425781 C 2.628906 16.914062 2.332031 16.316406 2.238281 15.632812 C 2.136719 14.886719 2.28125 14.183594 2.667969 13.554688 C 3.625 11.996094 5.019531 11.183594 6.863281 11.25 C 7.910156 11.289062 8.75 11.785156 9.398438 12.605469 C 9.589844 12.847656 9.769531 13.101562 9.964844 13.363281 M 27.761719 21.742188 C 27.640625 22.683594 27.523438 23.574219 27.40625 24.46875 C 27.398438 24.511719 27.363281 24.574219 27.324219 24.59375 C 25.511719 25.4375 23.125 25.320312 21.632812 23.617188 C 20.832031 22.703125 20.5 21.617188 20.546875 20.410156 C 20.664062 17.617188 22.964844 15.175781 25.71875 14.835938 C 27.328125 14.636719 28.738281 15.074219 29.828125 16.332031 C 30.574219 17.1875 30.914062 18.210938 30.867188 19.339844 C 30.832031 20.085938 30.714844 20.828125 30.621094 21.570312 C 30.492188 22.621094 30.347656 23.671875 30.210938 24.722656 C 30.207031 24.761719 30.199219 24.800781 30.1875 24.847656 L 28.019531 24.847656 C 28.046875 24.605469 28.074219 24.367188 28.105469 24.132812 C 28.265625 22.917969 28.433594 21.707031 28.574219 20.488281 C 28.660156 19.734375 28.605469 18.980469 28.261719 18.277344 C 27.894531 17.53125 27.28125 17.136719 26.472656 17.050781 C 24.800781 16.875 23.214844 18.042969 22.859375 19.695312 C 22.625 20.789062 22.992188 21.835938 23.859375 22.414062 C 24.699219 22.980469 25.605469 22.980469 26.519531 22.617188 C 26.988281 22.433594 27.382812 22.136719 27.761719 21.742188 M 36.894531 15.046875 C 36.792969 15.804688 36.695312 16.546875 36.597656 17.308594 C 36.140625 17.308594 35.6875 17.308594 35.238281 17.308594 C 34.875 17.3125 34.542969 17.550781 34.433594 17.890625 C 34.386719 18.023438 34.375 18.167969 34.355469 18.308594 C 34.125 20.046875 33.898438 21.785156 33.671875 23.523438 C 33.613281 23.964844 33.558594 24.402344 33.5 24.847656 L 31.246094 24.847656 C 31.285156 24.511719 31.328125 24.1875 31.367188 23.863281 C 31.515625 22.738281 31.660156 21.613281 31.808594 20.484375 C 31.941406 19.511719 32.054688 18.535156 32.207031 17.5625 C 32.40625 16.261719 33.695312 15.105469 35 15.050781 C 35.625 15.023438 36.25 15.046875 36.894531 15.046875 "/>
<path style=" stroke:none;fill-rule:nonzero;fill:rgb(23.921569%,23.137255%,24.313725%);fill-opacity:1;" d="M 48.984375 24.847656 L 48.984375 23.890625 L 48.976562 23.890625 L 48.605469 24.847656 L 48.488281 24.847656 L 48.113281 23.890625 L 48.109375 23.890625 L 48.109375 24.847656 L 47.921875 24.847656 L 47.921875 23.699219 L 48.210938 23.699219 L 48.550781 24.574219 L 48.882812 23.699219 L 49.171875 23.699219 L 49.171875 24.847656 Z M 47.328125 23.851562 L 47.328125 24.847656 L 47.136719 24.847656 L 47.136719 23.851562 L 46.78125 23.851562 L 46.78125 23.699219 L 47.683594 23.699219 L 47.683594 23.851562 Z M 12.992188 11.75 L 13.550781 11.75 L 13.417969 10.898438 Z M 13.636719 12.300781 L 12.707031 12.300781 L 12.410156 12.886719 L 11.75 12.886719 L 13.207031 10.148438 L 13.84375 10.148438 L 14.335938 12.886719 L 13.726562 12.886719 Z M 16.972656 10.699219 L 16.640625 10.699219 L 16.53125 11.332031 L 16.859375 11.332031 C 17.058594 11.332031 17.21875 11.199219 17.21875 10.949219 C 17.21875 10.785156 17.117188 10.699219 16.972656 10.699219 Z M 16.167969 10.148438 L 17.039062 10.148438 C 17.492188 10.148438 17.8125 10.421875 17.8125 10.894531 C 17.8125 11.488281 17.398438 11.886719 16.804688 11.886719 L 16.429688 11.886719 L 16.253906 12.886719 L 15.6875 12.886719 Z M 19.742188 11.75 L 20.304688 11.75 L 20.171875 10.898438 Z M 20.390625 12.300781 L 19.460938 12.300781 L 19.164062 12.886719 L 18.503906 12.886719 L 19.960938 10.148438 L 20.59375 10.148438 L 21.089844 12.886719 L 20.480469 12.886719 Z M 24.070312 12.789062 C 23.878906 12.878906 23.667969 12.929688 23.453125 12.929688 C 22.738281 12.929688 22.285156 12.386719 22.285156 11.707031 C 22.285156 10.835938 23.011719 10.105469 23.875 10.105469 C 24.089844 10.105469 24.285156 10.160156 24.445312 10.246094 L 24.367188 10.902344 C 24.246094 10.769531 24.054688 10.679688 23.8125 10.679688 C 23.320312 10.679688 22.878906 11.128906 22.878906 11.652344 C 22.878906 12.050781 23.125 12.359375 23.519531 12.359375 C 23.757812 12.359375 23.992188 12.269531 24.144531 12.136719 Z M 27.539062 11.78125 L 26.359375 11.78125 L 26.164062 12.882812 L 25.597656 12.882812 L 26.078125 10.148438 L 26.644531 10.148438 L 26.453125 11.230469 L 27.636719 11.230469 L 27.828125 10.148438 L 28.394531 10.148438 L 27.914062 12.882812 L 27.347656 12.882812 Z M 29.621094 12.886719 L 30.101562 10.148438 L 31.609375 10.148438 L 31.511719 10.699219 L 30.574219 10.699219 L 30.476562 11.230469 L 31.339844 11.230469 L 31.242188 11.78125 L 30.375 11.78125 L 30.28125 12.332031 L 31.21875 12.332031 L 31.121094 12.882812 Z M 29.621094 12.886719 "/>
</g>
</svg>
