<?xml version="1.0" encoding="UTF-8"?>
<svg xmlns="http://www.w3.org/2000/svg" xmlns:xlink="http://www.w3.org/1999/xlink" width="60px" height="62px" viewBox="0 0 60 62" version="1.1">
<g id="surface1">
<path style="fill-rule:nonzero;fill:rgb(0%,0%,0%);fill-opacity:1;stroke-width:37.3953;stroke-linecap:butt;stroke-linejoin:miter;stroke:rgb(0%,0%,0%);stroke-opacity:1;stroke-miterlimit:4;" d="M 323.212375 324.216891 C 326.024875 300.639522 325.181125 297.159054 342.75925 300.976342 L 347.231125 301.369298 C 360.75925 301.986801 378.42175 299.208039 388.828 294.380292 C 411.187375 283.995023 424.43425 266.676884 402.38425 271.223948 C 352.09675 281.609217 348.637375 264.571762 348.637375 264.571762 C 401.737375 185.784054 423.956125 85.748645 404.774875 61.245023 C 352.518625 -5.529454 262.0405 26.047379 260.52175 26.86136 L 260.043625 26.945565 C 250.1155 24.896579 238.978 23.661574 226.4905 23.465096 C 203.737375 23.100208 186.4405 29.415575 173.362375 39.37982 C 173.362375 39.37982 11.953 -27.142043 19.462375 122.995275 C 21.037375 154.936996 65.22175 364.635238 117.928 301.313162 C 137.193625 278.128749 155.78425 258.565146 155.78425 258.565146 C 165.037375 264.684035 176.0905 267.827684 187.706125 266.704952 L 188.606125 265.947108 C 188.324875 268.810074 188.437375 271.616904 188.97175 274.957031 C 175.387375 290.113911 179.381125 292.780399 152.2405 298.36599 C 124.7905 304.035786 140.906125 314.112305 151.453 316.750725 C 164.22175 319.922442 193.753 324.469506 213.72175 296.513483 L 212.906125 299.713269 C 218.249875 303.951581 217.88425 330.33578 218.643625 349.169607 C 219.403 368.003434 220.6405 385.574187 224.493625 395.931389 C 228.318625 406.28859 232.874875 432.98154 268.537375 425.346963 C 298.349875 418.947392 321.131125 409.74099 323.212375 324.216891 " transform="matrix(0.138889,0,0,0.139169,0.0000173611,0)"/>
<path style=" stroke:none;fill-rule:nonzero;fill:rgb(20%,40.392157%,56.862745%);fill-opacity:1;" d="M 55.886719 37.746094 C 48.902344 39.191406 48.421875 36.820312 48.421875 36.820312 C 55.796875 25.851562 58.882812 11.929688 56.21875 8.523438 C 48.960938 -0.769531 36.394531 3.625 36.183594 3.738281 L 36.117188 3.75 C 34.738281 3.464844 33.191406 3.292969 31.457031 3.265625 C 28.292969 3.214844 25.894531 4.09375 24.078125 5.476562 C 24.078125 5.476562 1.660156 -3.777344 2.703125 17.117188 C 2.921875 21.5625 9.058594 50.746094 16.378906 41.933594 C 19.054688 38.707031 21.636719 35.984375 21.636719 35.984375 C 22.921875 36.835938 24.457031 37.273438 26.070312 37.117188 L 26.195312 37.011719 C 26.15625 37.410156 26.171875 37.800781 26.246094 38.265625 C 24.359375 40.375 24.914062 40.746094 21.144531 41.523438 C 17.332031 42.3125 19.570312 43.714844 21.035156 44.082031 C 22.808594 44.523438 26.910156 45.15625 29.679688 41.265625 L 29.570312 41.710938 C 30.308594 42.300781 30.828125 45.566406 30.742188 48.523438 C 30.65625 51.484375 30.597656 53.515625 31.179688 55.101562 C 31.761719 56.6875 32.339844 60.257812 37.296875 59.195312 C 41.4375 58.304688 43.582031 56 43.878906 52.15625 C 44.089844 49.425781 44.570312 49.828125 44.601562 47.386719 L 44.984375 46.230469 C 45.429688 42.527344 45.054688 41.332031 47.605469 41.886719 L 48.226562 41.941406 C 50.105469 42.027344 52.5625 41.640625 54.003906 40.96875 C 57.109375 39.523438 58.949219 37.113281 55.886719 37.746094 Z M 55.886719 37.746094 "/>
<path style="fill:none;stroke-width:12.4651;stroke-linecap:round;stroke-linejoin:round;stroke:rgb(100%,100%,100%);stroke-opacity:1;stroke-miterlimit:4;" d="M 215.85925 286.493101 C 214.481125 336.005576 216.224875 385.85487 221.062375 397.980374 C 225.899875 410.105878 236.278 433.655179 271.968625 426.020602 C 301.753 419.621031 312.60925 407.27098 317.306125 379.960528 C 320.793625 359.891696 327.45925 304.119991 328.331125 292.696195 M 173.10925 38.257088 C 173.10925 38.257088 11.587375 -27.759545 19.09675 122.377772 C 20.699875 154.291425 64.88425 364.017736 117.562375 300.667591 C 136.828 277.511246 154.237375 259.351058 154.237375 259.351058 M 260.353 26.215789 C 254.756125 27.956023 350.18425 -8.673104 404.437375 60.62752 C 423.5905 85.103075 401.399875 185.138483 348.27175 263.954259 " transform="matrix(0.138889,0,0,0.139169,0.0000173611,0)"/>
<path style="fill:none;stroke-width:12.4651;stroke-linecap:round;stroke-linejoin:bevel;stroke:rgb(100%,100%,100%);stroke-opacity:1;stroke-miterlimit:4;" d="M 348.27175 263.954259 C 348.27175 263.954259 351.731125 280.991715 402.04675 270.606445 C 424.09675 266.059381 410.82175 283.37752 388.462375 293.76279 C 370.124875 302.267484 329.006125 304.456811 328.331125 292.696195 C 326.587375 262.326298 349.95925 271.560767 348.27175 263.954259 C 346.753 257.105595 336.2905 250.369204 329.399875 233.612431 C 323.353 218.988848 246.599875 106.771799 350.662375 123.444367 C 354.487375 122.630387 323.52175 24.419418 226.124875 22.819525 C 128.728 21.2477 131.93425 142.586946 131.93425 142.586946 " transform="matrix(0.138889,0,0,0.139169,0.0000173611,0)"/>
<path style="fill:none;stroke-width:12.4651;stroke-linecap:round;stroke-linejoin:round;stroke:rgb(100%,100%,100%);stroke-opacity:1;stroke-miterlimit:4;" d="M 188.606125 274.339529 C 175.02175 289.496409 179.0155 292.162897 151.874875 297.748488 C 124.424875 303.418284 140.568625 313.494802 151.087375 316.105154 C 163.856125 319.30494 193.387375 323.823935 213.356125 295.89598 C 219.431125 287.391287 213.328 273.806231 204.974875 270.353831 C 200.924875 268.669733 195.524875 266.564611 188.606125 274.339529 Z M 188.606125 274.339529 " transform="matrix(0.138889,0,0,0.139169,0.0000173611,0)"/>
<path style="fill:none;stroke-width:12.4651;stroke-linecap:round;stroke-linejoin:round;stroke:rgb(100%,100%,100%);stroke-opacity:1;stroke-miterlimit:4;" d="M 187.706125 274.058846 C 186.356125 265.161196 190.631125 254.55138 195.243625 242.117124 C 202.162375 223.507844 218.137375 204.870495 205.368625 145.786731 C 195.83425 101.747574 131.962375 136.636467 131.93425 142.586946 C 131.906125 148.565493 134.831125 172.844569 130.8655 201.137412 C 125.6905 238.047222 154.349875 269.287235 187.3405 266.08745 " transform="matrix(0.138889,0,0,0.139169,0.0000173611,0)"/>
<path style="fill-rule:nonzero;fill:rgb(100%,100%,100%);fill-opacity:1;stroke-width:4.155;stroke-linecap:butt;stroke-linejoin:miter;stroke:rgb(100%,100%,100%);stroke-opacity:1;stroke-miterlimit:4;" d="M 172.518625 141.68876 C 172.237375 143.737746 176.25925 149.182995 181.4905 149.912771 C 186.72175 150.642547 191.193625 146.376166 191.503 144.355248 C 191.78425 142.306263 187.762375 140.060799 182.503 139.331023 C 177.27175 138.601247 172.799875 139.667843 172.518625 141.68876 Z M 172.518625 141.68876 " transform="matrix(0.138889,0,0,0.139169,0.0000173611,0)"/>
<path style="fill-rule:nonzero;fill:rgb(100%,100%,100%);fill-opacity:1;stroke-width:2.0775;stroke-linecap:butt;stroke-linejoin:miter;stroke:rgb(100%,100%,100%);stroke-opacity:1;stroke-miterlimit:4;" d="M 331.931125 137.534652 C 332.212375 139.583638 328.218625 145.028887 322.95925 145.758663 C 317.728 146.488439 313.256125 142.222058 312.94675 140.20114 C 312.693625 138.152155 316.687375 135.906691 321.94675 135.176915 C 327.178 134.44714 331.649875 135.513735 331.931125 137.534652 Z M 331.931125 137.534652 " transform="matrix(0.138889,0,0,0.139169,0.0000173611,0)"/>
<path style="fill:none;stroke-width:12.4651;stroke-linecap:round;stroke-linejoin:round;stroke:rgb(100%,100%,100%);stroke-opacity:1;stroke-miterlimit:4;" d="M 350.662375 123.444367 C 351.53425 139.415228 347.231125 150.333795 346.69675 167.343183 C 345.881125 192.09942 358.481125 220.420331 339.49675 248.769311 " transform="matrix(0.138889,0,0,0.139169,0.0000173611,0)"/>
</g>
</svg>
