<?xml version="1.0" encoding="UTF-8"?>
<svg xmlns="http://www.w3.org/2000/svg" xmlns:xlink="http://www.w3.org/1999/xlink" width="31px" height="32px" viewBox="0 0 31 31" version="1.1">
<g id="surface1">
<path style="fill-rule:nonzero;fill:rgb(0%,0%,0%);fill-opacity:1;stroke-width:37.3953;stroke-linecap:butt;stroke-linejoin:miter;stroke:rgb(0%,0%,0%);stroke-opacity:1;stroke-miterlimit:4;" d="M 323.183343 324.24496 C 326.013988 300.611454 325.197456 297.187122 342.780117 301.00441 L 347.243827 301.397366 C 360.743827 302.014869 378.435359 299.208039 388.832536 294.380292 C 411.20552 283.995023 424.433343 266.704952 402.386972 271.252016 C 352.088585 281.581149 348.659149 264.571762 348.659149 264.571762 C 401.733746 185.755985 423.943423 85.720577 404.782133 61.245023 C 352.524069 -5.557523 262.052294 26.047379 260.528101 26.889428 L 260.038181 26.945565 C 250.076488 24.868511 238.971649 23.689642 226.505923 23.465096 C 203.751891 23.07214 186.441407 29.415575 173.376891 39.351752 C 173.376891 39.351752 11.921246 -27.113974 19.433343 122.995275 C 21.066407 154.936996 65.213585 364.663306 117.907133 301.285093 C 137.177294 278.156817 155.79423 258.565146 155.79423 258.565146 C 165.048262 264.684035 176.098665 267.827684 187.693423 266.704952 L 188.618827 265.91904 C 188.346649 268.838143 188.45552 271.644972 188.94544 274.957031 C 175.391004 290.113911 179.364794 292.808468 152.255923 298.36599 C 124.766004 304.035786 140.933343 314.084236 151.439391 316.722656 C 164.23173 319.922442 193.735762 324.469506 213.713585 296.513483 L 212.897052 299.713269 C 218.23173 303.97965 217.905117 330.307712 218.612778 349.169607 C 219.374875 367.975365 220.626891 385.546119 224.49181 395.931389 C 228.35673 406.260522 232.874875 432.98154 268.530117 425.346963 C 298.360762 418.947392 321.114794 409.74099 323.183343 324.24496 " transform="matrix(0.0717593,0,0,0.0695847,0.00000896991,0)"/>
<path style=" stroke:none;fill-rule:nonzero;fill:rgb(20%,40.392157%,56.862745%);fill-opacity:1;" d="M 28.875 18.875 C 25.265625 19.59375 25.019531 18.410156 25.019531 18.410156 C 28.828125 12.925781 30.421875 5.964844 29.046875 4.261719 C 25.296875 -0.386719 18.804688 1.8125 18.695312 1.871094 L 18.660156 1.875 C 17.945312 1.730469 17.148438 1.648438 16.253906 1.632812 C 14.617188 1.605469 13.378906 2.046875 12.441406 2.738281 C 12.441406 2.738281 0.855469 -1.886719 1.394531 8.558594 C 1.511719 10.78125 4.679688 25.375 8.460938 20.964844 C 9.84375 19.355469 11.179688 17.992188 11.179688 17.992188 C 11.84375 18.417969 12.636719 18.636719 13.46875 18.558594 L 13.535156 18.503906 C 13.511719 18.707031 13.523438 18.902344 13.558594 19.132812 C 12.585938 20.1875 12.871094 20.375 10.925781 20.761719 C 8.953125 21.15625 10.113281 21.855469 10.867188 22.039062 C 11.785156 22.261719 13.902344 22.578125 15.335938 20.632812 L 15.277344 20.855469 C 15.660156 21.152344 15.929688 22.78125 15.882812 24.261719 C 15.839844 25.742188 15.808594 26.757812 16.109375 27.550781 C 16.410156 28.34375 16.710938 30.128906 19.269531 29.597656 C 21.410156 29.152344 22.515625 28 22.671875 26.078125 C 22.78125 24.710938 23.027344 24.914062 23.042969 23.695312 L 23.242188 23.117188 C 23.472656 21.261719 23.277344 20.667969 24.597656 20.945312 L 24.917969 20.972656 C 25.886719 21.015625 27.15625 20.820312 27.902344 20.484375 C 29.503906 19.761719 30.457031 18.558594 28.875 18.875 Z M 28.875 18.875 "/>
<path style="fill:none;stroke-width:12.4651;stroke-linecap:round;stroke-linejoin:round;stroke:rgb(100%,100%,100%);stroke-opacity:1;stroke-miterlimit:4;" d="M 215.891004 286.465033 C 214.475681 335.977508 216.217617 385.882939 221.062375 397.952306 C 225.907133 410.07781 236.30431 433.655179 271.959552 426.020602 C 301.790198 419.621031 312.622859 407.27098 317.30431 379.988596 C 320.788181 359.891696 327.483746 304.091923 328.300278 292.696195 M 173.104714 38.22902 C 173.104714 38.22902 11.594633 -27.787613 19.10673 122.377772 C 20.685359 154.319493 64.886972 364.045804 117.58052 300.667591 C 136.796246 277.539315 154.215601 259.351058 154.215601 259.351058 M 260.364794 26.215789 C 254.75794 27.956023 350.183343 -8.701172 404.45552 60.62752 C 423.61681 85.103075 401.407133 185.138483 348.278101 263.954259 " transform="matrix(0.0717593,0,0,0.0695847,0.00000896991,0)"/>
<path style="fill:none;stroke-width:12.4651;stroke-linecap:round;stroke-linejoin:bevel;stroke:rgb(100%,100%,100%);stroke-opacity:1;stroke-miterlimit:4;" d="M 348.278101 263.954259 C 348.278101 263.954259 351.761972 280.963647 402.060359 270.578377 C 424.10673 266.031313 410.824472 283.37752 388.451488 293.76279 C 370.10673 302.295552 329.00794 304.484879 328.300278 292.696195 C 326.612778 262.326298 349.965601 271.532699 348.278101 263.954259 C 346.753907 257.105595 336.302294 250.369204 329.388988 233.640499 C 323.346649 218.988848 246.592617 106.771799 350.673262 123.444367 C 354.483746 122.658455 323.509956 24.419418 226.124875 22.847593 C 128.739794 21.219632 131.951488 142.586946 131.951488 142.586946 " transform="matrix(0.0717593,0,0,0.0695847,0.00000896991,0)"/>
<path style="fill:none;stroke-width:12.4651;stroke-linecap:round;stroke-linejoin:round;stroke:rgb(100%,100%,100%);stroke-opacity:1;stroke-miterlimit:4;" d="M 188.618827 274.339529 C 175.009956 289.496409 179.038181 292.190965 151.874875 297.748488 C 124.439391 303.418284 140.552294 313.466734 151.058343 316.105154 C 163.850681 319.30494 193.409149 323.852004 213.332536 295.89598 C 219.42931 287.363218 213.332536 273.778163 204.949472 270.353831 C 200.921246 268.669733 195.532133 266.592679 188.618827 274.339529 Z M 188.618827 274.339529 " transform="matrix(0.0717593,0,0,0.0695847,0.00000896991,0)"/>
<path style="fill:none;stroke-width:12.4651;stroke-linecap:round;stroke-linejoin:round;stroke:rgb(100%,100%,100%);stroke-opacity:1;stroke-miterlimit:4;" d="M 187.693423 274.058846 C 186.332536 265.133128 190.63294 254.523311 195.259956 242.117124 C 202.173262 223.479776 218.122859 204.898564 205.384956 145.786731 C 195.858746 101.775643 131.951488 136.636467 131.951488 142.586946 C 131.897052 148.537424 134.836569 172.844569 130.862778 201.137412 C 125.691407 238.07529 154.378907 269.287235 187.36681 266.08745 " transform="matrix(0.0717593,0,0,0.0695847,0.00000896991,0)"/>
<path style="fill-rule:nonzero;fill:rgb(100%,100%,100%);fill-opacity:1;stroke-width:4.155;stroke-linecap:butt;stroke-linejoin:miter;stroke:rgb(100%,100%,100%);stroke-opacity:1;stroke-miterlimit:4;" d="M 172.505923 141.68876 C 172.233746 143.765814 176.261972 149.154927 181.487778 149.884703 C 186.713585 150.614478 191.23173 146.404234 191.503907 144.32718 C 191.776085 142.306263 187.747859 140.060799 182.522052 139.331023 C 177.296246 138.601247 172.778101 139.667843 172.505923 141.68876 Z M 172.505923 141.68876 " transform="matrix(0.0717593,0,0,0.0695847,0.00000896991,0)"/>
<path style="fill-rule:nonzero;fill:rgb(100%,100%,100%);fill-opacity:1;stroke-width:2.0775;stroke-linecap:butt;stroke-linejoin:miter;stroke:rgb(100%,100%,100%);stroke-opacity:1;stroke-miterlimit:4;" d="M 331.947456 137.534652 C 332.219633 139.55557 328.191407 145.000819 322.965601 145.730595 C 317.739794 146.46037 313.221649 142.250126 312.949472 140.173072 C 312.677294 138.152155 316.70552 135.906691 321.931327 135.176915 C 327.157133 134.44714 331.675278 135.513735 331.947456 137.534652 Z M 331.947456 137.534652 " transform="matrix(0.0717593,0,0,0.0695847,0.00000896991,0)"/>
<path style="fill:none;stroke-width:12.4651;stroke-linecap:round;stroke-linejoin:round;stroke:rgb(100%,100%,100%);stroke-opacity:1;stroke-miterlimit:4;" d="M 350.673262 123.444367 C 351.54423 139.443296 347.243827 150.333795 346.699472 167.343183 C 345.88294 192.09942 358.511972 220.392263 339.513988 248.797379 " transform="matrix(0.0717593,0,0,0.0695847,0.00000896991,0)"/>
</g>
</svg>
