<?xml version="1.0" encoding="UTF-8"?>
<svg xmlns="http://www.w3.org/2000/svg" xmlns:xlink="http://www.w3.org/1999/xlink" width="56px" height="62px" viewBox="0 0 56 61" version="1.1">
<defs>
<linearGradient id="linear0" gradientUnits="userSpaceOnUse" x1="26.649" y1="20.604" x2="135.665" y2="114.398" gradientTransform="matrix(0.256116,0,0,0.256638,-6.825171,-5.28757)">
<stop offset="0" style="stop-color:rgb(35.294118%,62.352941%,83.137255%);stop-opacity:1;"/>
<stop offset="1" style="stop-color:rgb(18.823529%,41.176471%,59.607843%);stop-opacity:1;"/>
</linearGradient>
<linearGradient id="linear1" gradientUnits="userSpaceOnUse" x1="150.961" y1="192.352" x2="112.031" y2="137.273" gradientTransform="matrix(0.256116,0,0,0.256638,-6.825171,-5.28757)">
<stop offset="0" style="stop-color:rgb(100%,83.137255%,23.137255%);stop-opacity:1;"/>
<stop offset="1" style="stop-color:rgb(100%,90.980392%,45.098039%);stop-opacity:1;"/>
</linearGradient>
<filter id="alpha" filterUnits="objectBoundingBox" x="0%" y="0%" width="100%" height="100%">
  <feColorMatrix type="matrix" in="SourceGraphic" values="0 0 0 0 1 0 0 0 0 1 0 0 0 0 1 0 0 0 1 0"/>
</filter>
<mask id="mask0">
  <g filter="url(#alpha)">
<rect x="0" y="0" width="56" height="61" style="fill:rgb(0%,0%,0%);fill-opacity:0.443137;stroke:none;"/>
  </g>
</mask>
<radialGradient id="radial0" gradientUnits="userSpaceOnUse" cx="61.519" cy="132.286" fx="61.519" fy="132.286" r="29.037" gradientTransform="matrix(0,-0.108422,0.480175,0,-38.107317,64.371719)">
<stop offset="0" style="stop-color:rgb(72.156863%,72.156863%,72.156863%);stop-opacity:0.498039;"/>
<stop offset="1" style="stop-color:rgb(49.803922%,49.803922%,49.803922%);stop-opacity:0;"/>
</radialGradient>
<clipPath id="clip1">
  <rect x="0" y="0" width="56" height="61"/>
</clipPath>
<g id="surface5" clip-path="url(#clip1)">
<path style=" stroke:none;fill-rule:nonzero;fill:url(#radial0);" d="M 41.769531 57.703125 C 41.769531 55.964844 34.449219 54.554688 25.414062 54.554688 C 16.378906 54.554688 9.054688 55.964844 9.054688 57.703125 C 9.054688 59.441406 16.378906 60.851562 25.414062 60.851562 C 34.449219 60.851562 41.769531 59.441406 41.769531 57.703125 Z M 41.769531 57.703125 "/>
</g>
</defs>
<g id="surface1">
<path style=" stroke:none;fill-rule:nonzero;fill:url(#linear0);" d="M 25.003906 0 C 22.917969 0.0117188 20.925781 0.1875 19.171875 0.496094 C 14.003906 1.398438 13.066406 3.296875 13.066406 6.792969 L 13.066406 11.410156 L 25.273438 11.410156 L 25.273438 12.949219 L 8.484375 12.949219 C 4.9375 12.949219 1.832031 15.066406 0.859375 19.089844 C -0.261719 23.707031 -0.3125 26.585938 0.859375 31.402344 C 1.726562 34.992188 3.800781 37.546875 7.347656 37.546875 L 11.542969 37.546875 L 11.542969 32.011719 C 11.542969 28.011719 15.03125 24.484375 19.171875 24.484375 L 31.363281 24.484375 C 34.757812 24.484375 37.46875 21.710938 37.46875 18.328125 L 37.46875 6.792969 C 37.46875 3.507812 34.675781 1.042969 31.363281 0.496094 C 29.265625 0.148438 27.089844 -0.0078125 25.003906 0 Z M 18.402344 3.714844 C 19.664062 3.714844 20.691406 4.753906 20.691406 6.03125 C 20.691406 7.300781 19.664062 8.332031 18.402344 8.332031 C 17.136719 8.332031 16.113281 7.300781 16.113281 6.03125 C 16.113281 4.753906 17.136719 3.714844 18.402344 3.714844 Z M 18.402344 3.714844 "/>
<path style=" stroke:none;fill-rule:nonzero;fill:url(#linear1);" d="M 38.988281 12.949219 L 38.988281 18.328125 C 38.988281 22.5 35.425781 26.011719 31.363281 26.011719 L 19.171875 26.011719 C 15.832031 26.011719 13.066406 28.847656 13.066406 32.167969 L 13.066406 43.703125 C 13.066406 46.984375 15.945312 48.917969 19.171875 49.859375 C 23.035156 50.988281 26.738281 51.191406 31.363281 49.859375 C 34.4375 48.976562 37.46875 47.199219 37.46875 43.703125 L 37.46875 39.085938 L 25.273438 39.085938 L 25.273438 37.546875 L 43.570312 37.546875 C 47.117188 37.546875 48.441406 35.089844 49.675781 31.402344 C 50.949219 27.609375 50.894531 23.960938 49.675781 19.089844 C 48.796875 15.585938 47.121094 12.949219 43.570312 12.949219 Z M 32.132812 42.164062 C 33.398438 42.164062 34.421875 43.191406 34.421875 44.464844 C 34.421875 45.742188 33.398438 46.78125 32.132812 46.78125 C 30.871094 46.78125 29.839844 45.742188 29.839844 44.464844 C 29.839844 43.191406 30.871094 42.164062 32.132812 42.164062 Z M 32.132812 42.164062 "/>
<use xlink:href="#surface5" mask="url(#mask0)"/>
</g>
</svg>
